<svg width="39" height="40" viewBox="0 0 39 40" fill="none" xmlns="http://www.w3.org/2000/svg">
<path d="M11.15 17V15H13.15V8C13.15 6.61667 13.5667 5.3875 14.4 4.3125C15.2334 3.2375 16.3167 2.53333 17.65 2.2V1.5C17.65 1.08333 17.7959 0.729167 18.0875 0.4375C18.3792 0.145833 18.7334 0 19.15 0C19.5667 0 19.9209 0.145833 20.2125 0.4375C20.5042 0.729167 20.65 1.08333 20.65 1.5V2.2C21.9834 2.53333 23.0667 3.2375 23.9 4.3125C24.7334 5.3875 25.15 6.61667 25.15 8V15H27.15V17H11.15ZM19.15 20C18.6 20 18.1292 19.8042 17.7375 19.4125C17.3459 19.0208 17.15 18.55 17.15 18H21.15C21.15 18.55 20.9542 19.0208 20.5625 19.4125C20.1709 19.8042 19.7 20 19.15 20ZM15.15 15H23.15V8C23.15 6.9 22.7584 5.95833 21.975 5.175C21.1917 4.39167 20.25 4 19.15 4C18.05 4 17.1084 4.39167 16.325 5.175C15.5417 5.95833 15.15 6.9 15.15 8V15Z" fill="#C5C6CD"/>
<path d="M0.230399 36L3.3024 27.48H5.20803L8.28003 36H6.6432L5.94001 33.984H2.56562L1.86243 36H0.230399ZM3.02403 32.6496H5.4864L4.25762 29.0568L3.02403 32.6496ZM11.2008 36C10.7304 36 10.3568 35.88 10.08 35.64C9.80319 35.4 9.66479 35.0144 9.66479 34.4832V27.48H11.2008V34.3272C11.2008 34.4936 11.242 34.6156 11.3244 34.6932C11.4068 34.7708 11.5248 34.8096 11.6784 34.8096H12.1488V36H11.2008ZM16.4952 36.144C15.8568 36.144 15.3028 36.0064 14.8332 35.7312C14.3636 35.456 14.0004 35.0668 13.7436 34.5636C13.4868 34.0604 13.3584 33.4712 13.3584 32.796C13.3584 32.1208 13.4868 31.5336 13.7436 31.0344C14.0004 30.5352 14.3612 30.146 14.826 29.8668C15.2908 29.5876 15.8376 29.448 16.4664 29.448C17.076 29.448 17.6096 29.5844 18.0672 29.8572C18.5248 30.13 18.8788 30.5224 19.1292 31.0344C19.3796 31.5464 19.5048 32.1616 19.5048 32.88V33.2232H14.952C14.9824 33.788 15.1356 34.2112 15.4116 34.4928C15.6876 34.7744 16.0552 34.9152 16.5144 34.9152C16.8568 34.9152 17.1412 34.8388 17.3676 34.686C17.594 34.5332 17.7528 34.316 17.844 34.0344L19.4136 34.1328C19.2424 34.752 18.898 35.242 18.3804 35.6028C17.8628 35.9636 17.2344 36.144 16.4952 36.144ZM14.952 32.1912H17.9112C17.8792 31.6712 17.7324 31.2856 17.4708 31.0344C17.2092 30.7832 16.8744 30.6576 16.4664 30.6576C16.0552 30.6576 15.7156 30.7892 15.4476 31.0524C15.1796 31.3156 15.0144 31.6952 14.952 32.1912ZM21.3048 36V29.592H22.74L22.7976 31.3728L22.6728 31.3416C22.7688 30.7272 22.95 30.282 23.2164 30.006C23.4828 29.73 23.8464 29.592 24.3072 29.592H24.9024V30.9072H24.3048C23.9752 30.9072 23.7028 30.9556 23.4876 31.0524C23.2724 31.1492 23.1108 31.2996 23.0028 31.5036C22.8948 31.7076 22.8408 31.976 22.8408 32.3088V36H21.3048ZM28.9152 36C28.2784 36 27.81 35.8528 27.51 35.5584C27.21 35.264 27.06 34.8 27.06 34.1664V28.0896H28.596V34.0176C28.596 34.3184 28.6608 34.5256 28.7904 34.6392C28.92 34.7528 29.1184 34.8096 29.3856 34.8096H30.288V36H28.9152ZM26.0568 30.7824V29.592H30.288V30.7824H26.0568ZM34.5168 36.144C33.8624 36.144 33.3212 36.0512 32.8932 35.8656C32.4652 35.68 32.1404 35.4244 31.9188 35.0988C31.6972 34.7732 31.5704 34.4008 31.5384 33.9816L33.108 33.9144C33.1656 34.2472 33.3012 34.5068 33.5148 34.6932C33.7284 34.8796 34.064 34.9728 34.5216 34.9728C34.88 34.9728 35.1548 34.914 35.346 34.7964C35.5372 34.6788 35.6328 34.496 35.6328 34.248C35.6328 34.1024 35.5988 33.9816 35.5308 33.8856C35.4628 33.7896 35.3304 33.7052 35.1336 33.6324C34.9368 33.5596 34.648 33.4896 34.2672 33.4224C33.6208 33.3072 33.1144 33.1672 32.748 33.0024C32.3816 32.8376 32.124 32.6312 31.9752 32.3832C31.8264 32.1352 31.752 31.8304 31.752 31.4688C31.752 30.8688 31.982 30.382 32.442 30.0084C32.902 29.6348 33.5768 29.448 34.4664 29.448C35.084 29.448 35.59 29.5452 35.9844 29.7396C36.3788 29.934 36.6776 30.1944 36.8808 30.5208C37.084 30.8472 37.2024 31.208 37.236 31.6032L35.6808 31.6752C35.6712 31.4752 35.6216 31.2952 35.532 31.1352C35.4424 30.9752 35.3096 30.8492 35.1336 30.7572C34.9576 30.6652 34.7272 30.6192 34.4424 30.6192C34.0792 30.6192 33.8048 30.692 33.6192 30.8376C33.4336 30.9832 33.3408 31.1744 33.3408 31.4112C33.3408 31.584 33.378 31.726 33.4524 31.8372C33.5268 31.9484 33.6564 32.0388 33.8412 32.1084C34.026 32.178 34.2768 32.2384 34.5936 32.2896C35.2528 32.3872 35.7744 32.5192 36.1584 32.6856C36.5424 32.852 36.8156 33.0612 36.978 33.3132C37.1404 33.5652 37.2216 33.8704 37.2216 34.2288C37.2216 34.8416 36.9764 35.314 36.486 35.646C35.9956 35.978 35.3392 36.144 34.5168 36.144Z" fill="#C5C6CD"/>
</svg>
