<svg width="36" height="34" viewBox="0 0 36 34" fill="none" xmlns="http://www.w3.org/2000/svg">
<path d="M11.835 16H14.835V10H20.835V16H23.835V7L17.835 2.5L11.835 7V16ZM9.83496 18V6L17.835 0L25.835 6V18H18.835V12H16.835V18H9.83496Z" fill="#C5C6CD"/>
<path d="M1.26299 30V21.48H2.82302V25.5528L2.10781 25.0344H7.12139L6.40618 25.5528V21.48H7.96621V30H6.40618V25.8792L7.12139 26.3928H2.10781L2.82302 25.8792V30H1.26299ZM13.0326 30.144C12.4006 30.144 11.8478 30.0064 11.3742 29.7312C10.9006 29.456 10.5334 29.0668 10.2726 28.5636C10.0118 28.0604 9.8814 27.4712 9.8814 26.796C9.8814 26.116 10.0118 25.5264 10.2726 25.0272C10.5334 24.528 10.9006 24.14 11.3742 23.8632C11.8478 23.5864 12.4006 23.448 13.0326 23.448C13.6646 23.448 14.2162 23.5864 14.6874 23.8632C15.1586 24.14 15.5246 24.528 15.7854 25.0272C16.0462 25.5264 16.1766 26.116 16.1766 26.796C16.1766 27.4712 16.0462 28.0604 15.7854 28.5636C15.5246 29.0668 15.1586 29.456 14.6874 29.7312C14.2162 30.0064 13.6646 30.144 13.0326 30.144ZM13.0326 28.9008C13.527 28.9008 13.9098 28.7156 14.181 28.3452C14.4522 27.9748 14.5878 27.4584 14.5878 26.796C14.5878 26.1368 14.4522 25.6212 14.181 25.2492C13.9098 24.8772 13.527 24.6912 13.0326 24.6912C12.5382 24.6912 12.1542 24.8772 11.8806 25.2492C11.607 25.6212 11.4702 26.1368 11.4702 26.796C11.4702 27.4584 11.607 27.9748 11.8806 28.3452C12.1542 28.7156 12.5382 28.9008 13.0326 28.9008ZM17.9718 30V23.592H19.3614L19.4118 25.1616L19.2582 25.0944C19.3366 24.7488 19.4658 24.454 19.6458 24.21C19.8258 23.966 20.0454 23.778 20.3046 23.646C20.5638 23.514 20.8486 23.448 21.159 23.448C21.7014 23.448 22.141 23.6024 22.4778 23.9112C22.8146 24.22 23.0286 24.6416 23.1198 25.176L22.9086 25.1784C22.979 24.804 23.1026 24.4892 23.2794 24.234C23.4562 23.9788 23.6782 23.784 23.9454 23.6496C24.2126 23.5152 24.5142 23.448 24.8502 23.448C25.2966 23.448 25.679 23.5412 25.9974 23.7276C26.3158 23.914 26.5606 24.188 26.7318 24.5496C26.903 24.9112 26.9886 25.3544 26.9886 25.8792V30H25.4526V26.2824C25.4526 25.7544 25.3638 25.358 25.1862 25.0932C25.0086 24.8284 24.7334 24.696 24.3606 24.696C24.1158 24.696 23.9058 24.76 23.7306 24.888C23.5554 25.016 23.4206 25.2012 23.3262 25.4436C23.2318 25.686 23.1846 25.98 23.1846 26.3256V30H21.7638V26.3256C21.7638 25.8024 21.683 25.4 21.5214 25.1184C21.3598 24.8368 21.083 24.696 20.691 24.696C20.4462 24.696 20.2362 24.76 20.061 24.888C19.8858 25.016 19.7498 25.2024 19.653 25.4472C19.5562 25.692 19.5078 25.9848 19.5078 26.3256V30H17.9718ZM31.8822 30.144C31.2438 30.144 30.6898 30.0064 30.2202 29.7312C29.7506 29.456 29.3874 29.0668 29.1306 28.5636C28.8738 28.0604 28.7454 27.4712 28.7454 26.796C28.7454 26.1208 28.8738 25.5336 29.1306 25.0344C29.3874 24.5352 29.7482 24.146 30.213 23.8668C30.6778 23.5876 31.2246 23.448 31.8534 23.448C32.463 23.448 32.9966 23.5844 33.4542 23.8572C33.9118 24.13 34.2658 24.5224 34.5162 25.0344C34.7666 25.5464 34.8918 26.1616 34.8918 26.88V27.2232H30.339C30.3694 27.788 30.5226 28.2112 30.7986 28.4928C31.0746 28.7744 31.4422 28.9152 31.9014 28.9152C32.2438 28.9152 32.5282 28.8388 32.7546 28.686C32.981 28.5332 33.1398 28.316 33.231 28.0344L34.8006 28.1328C34.6294 28.752 34.285 29.242 33.7674 29.6028C33.2498 29.9636 32.6214 30.144 31.8822 30.144ZM30.339 26.1912H33.2982C33.2662 25.6712 33.1194 25.2856 32.8578 25.0344C32.5962 24.7832 32.2614 24.6576 31.8534 24.6576C31.4422 24.6576 31.1026 24.7892 30.8346 25.0524C30.5666 25.3156 30.4014 25.6952 30.339 26.1912Z" fill="#C5C6CD"/>
</svg>
