<svg width="36" height="34" viewBox="0 0 36 34" fill="none" xmlns="http://www.w3.org/2000/svg">
<path d="M19.705 5.9V4.2C20.255 3.96667 20.8175 3.79167 21.3925 3.675C21.9675 3.55833 22.5717 3.5 23.205 3.5C23.6383 3.5 24.0633 3.53333 24.48 3.6C24.8967 3.66667 25.305 3.75 25.705 3.85V5.45C25.305 5.3 24.9008 5.1875 24.4925 5.1125C24.0842 5.0375 23.655 5 23.205 5C22.5717 5 21.9633 5.07917 21.38 5.2375C20.7967 5.39583 20.2383 5.61667 19.705 5.9ZM19.705 11.4V9.7C20.255 9.46667 20.8175 9.29167 21.3925 9.175C21.9675 9.05833 22.5717 9 23.205 9C23.6383 9 24.0633 9.03333 24.48 9.1C24.8967 9.16667 25.305 9.25 25.705 9.35V10.95C25.305 10.8 24.9008 10.6875 24.4925 10.6125C24.0842 10.5375 23.655 10.5 23.205 10.5C22.5717 10.5 21.9633 10.575 21.38 10.725C20.7967 10.875 20.2383 11.1 19.705 11.4ZM19.705 8.65V6.95C20.255 6.71667 20.8175 6.54167 21.3925 6.425C21.9675 6.30833 22.5717 6.25 23.205 6.25C23.6383 6.25 24.0633 6.28333 24.48 6.35C24.8967 6.41667 25.305 6.5 25.705 6.6V8.2C25.305 8.05 24.9008 7.9375 24.4925 7.8625C24.0842 7.7875 23.655 7.75 23.205 7.75C22.5717 7.75 21.9633 7.82917 21.38 7.9875C20.7967 8.14583 20.2383 8.36667 19.705 8.65ZM12.205 12C12.9883 12 13.7508 12.0875 14.4925 12.2625C15.2342 12.4375 15.9717 12.7 16.705 13.05V3.2C16.0217 2.8 15.2967 2.5 14.53 2.3C13.7633 2.1 12.9883 2 12.205 2C11.605 2 11.0092 2.05833 10.4175 2.175C9.82582 2.29167 9.25499 2.46667 8.70499 2.7V12.6C9.28832 12.4 9.86749 12.25 10.4425 12.15C11.0175 12.05 11.605 12 12.205 12ZM18.705 13.05C19.4383 12.7 20.1758 12.4375 20.9175 12.2625C21.6592 12.0875 22.4217 12 23.205 12C23.805 12 24.3925 12.05 24.9675 12.15C25.5425 12.25 26.1217 12.4 26.705 12.6V2.7C26.155 2.46667 25.5842 2.29167 24.9925 2.175C24.4008 2.05833 23.805 2 23.205 2C22.4217 2 21.6467 2.1 20.88 2.3C20.1133 2.5 19.3883 2.8 18.705 3.2V13.05ZM17.705 16C16.905 15.3667 16.0383 14.875 15.105 14.525C14.1717 14.175 13.205 14 12.205 14C11.505 14 10.8175 14.0917 10.1425 14.275C9.46749 14.4583 8.82165 14.7167 8.20499 15.05C7.85499 15.2333 7.51749 15.225 7.19249 15.025C6.86749 14.825 6.70499 14.5333 6.70499 14.15V2.1C6.70499 1.91667 6.75082 1.74167 6.84249 1.575C6.93415 1.40833 7.07165 1.28333 7.25499 1.2C8.02165 0.8 8.82165 0.5 9.65499 0.3C10.4883 0.1 11.3383 0 12.205 0C13.1717 0 14.1175 0.125 15.0425 0.375C15.9675 0.625 16.855 1 17.705 1.5C18.555 1 19.4425 0.625 20.3675 0.375C21.2925 0.125 22.2383 0 23.205 0C24.0717 0 24.9217 0.1 25.755 0.3C26.5883 0.5 27.3883 0.8 28.155 1.2C28.3383 1.28333 28.4758 1.40833 28.5675 1.575C28.6592 1.74167 28.705 1.91667 28.705 2.1V14.15C28.705 14.5333 28.5425 14.825 28.2175 15.025C27.8925 15.225 27.555 15.2333 27.205 15.05C26.5883 14.7167 25.9425 14.4583 25.2675 14.275C24.5925 14.0917 23.905 14 23.205 14C22.205 14 21.2383 14.175 20.305 14.525C19.3717 14.875 18.505 15.3667 17.705 16Z" fill="#C5C6CD"/>
<path d="M1.27099 30V21.48H2.83102V29.5152L1.9838 28.6416H6.87021V30H1.27099ZM11.1662 30.144C10.5278 30.144 9.97381 30.0064 9.5042 29.7312C9.0346 29.456 8.6714 29.0668 8.4146 28.5636C8.1578 28.0604 8.0294 27.4712 8.0294 26.796C8.0294 26.1208 8.1578 25.5336 8.4146 25.0344C8.6714 24.5352 9.0322 24.146 9.497 23.8668C9.96181 23.5876 10.5086 23.448 11.1374 23.448C11.747 23.448 12.2806 23.5844 12.7382 23.8572C13.1958 24.13 13.5498 24.5224 13.8002 25.0344C14.0506 25.5464 14.1758 26.1616 14.1758 26.88V27.2232H9.62303C9.65343 27.788 9.80663 28.2112 10.0826 28.4928C10.3586 28.7744 10.7262 28.9152 11.1854 28.9152C11.5278 28.9152 11.8122 28.8388 12.0386 28.686C12.265 28.5332 12.4238 28.316 12.515 28.0344L14.0846 28.1328C13.9134 28.752 13.569 29.242 13.0514 29.6028C12.5338 29.9636 11.9054 30.144 11.1662 30.144ZM9.62303 26.1912H12.5822C12.5502 25.6712 12.4034 25.2856 12.1418 25.0344C11.8802 24.7832 11.5454 24.6576 11.1374 24.6576C10.7262 24.6576 10.3866 24.7892 10.1186 25.0524C9.85063 25.3156 9.68543 25.6952 9.62303 26.1912ZM17.9222 30.144C17.2566 30.144 16.7194 29.9904 16.3106 29.6832C15.9018 29.376 15.6974 28.9472 15.6974 28.3968C15.6974 27.84 15.8694 27.4064 16.2134 27.096C16.5574 26.7856 17.079 26.5616 17.7782 26.424L19.9094 26.0088C19.9094 25.5528 19.805 25.2104 19.5962 24.9816C19.3874 24.7528 19.0806 24.6384 18.6758 24.6384C18.303 24.6384 18.0102 24.7236 17.7974 24.894C17.5846 25.0644 17.4414 25.3112 17.3678 25.6344L15.8054 25.5552C15.9286 24.8816 16.2386 24.362 16.7354 23.9964C17.2322 23.6308 17.879 23.448 18.6758 23.448C19.5878 23.448 20.2774 23.6772 20.7446 24.1356C21.2118 24.594 21.4454 25.2512 21.4454 26.1072V28.4424C21.4454 28.612 21.4746 28.7276 21.533 28.7892C21.5914 28.8508 21.6806 28.8816 21.8006 28.8816H22.0046V30C21.9566 30.0144 21.879 30.0268 21.7718 30.0372C21.6646 30.0476 21.5566 30.0528 21.4478 30.0528C21.1822 30.0528 20.9458 30.0092 20.7386 29.922C20.5314 29.8348 20.3702 29.6868 20.255 29.478C20.1398 29.2692 20.0822 28.9808 20.0822 28.6128L20.2214 28.704C20.1526 28.9856 20.0134 29.2356 19.8038 29.454C19.5942 29.6724 19.3286 29.842 19.007 29.9628C18.6854 30.0836 18.3238 30.144 17.9222 30.144ZM18.239 29.0256C18.5798 29.0256 18.8746 28.9588 19.1234 28.8252C19.3722 28.6916 19.5654 28.5036 19.703 28.2612C19.8406 28.0188 19.9094 27.736 19.9094 27.4128V27.0528L18.2486 27.3888C17.9094 27.456 17.6642 27.5604 17.513 27.702C17.3618 27.8436 17.2862 28.0272 17.2862 28.2528C17.2862 28.4976 17.369 28.6876 17.5346 28.8228C17.7002 28.958 17.935 29.0256 18.239 29.0256ZM23.6078 30V23.592H25.043L25.1006 25.3728L24.9758 25.3416C25.0718 24.7272 25.253 24.282 25.5194 24.006C25.7858 23.73 26.1494 23.592 26.6102 23.592H27.2054V24.9072H26.6078C26.2782 24.9072 26.0058 24.9556 25.7906 25.0524C25.5754 25.1492 25.4138 25.2996 25.3058 25.5036C25.1978 25.7076 25.1438 25.976 25.1438 26.3088V30H23.6078ZM28.7318 30V23.592H30.1214L30.1814 25.3896L29.9942 25.3152C30.0614 24.8688 30.1942 24.5092 30.3926 24.2364C30.591 23.9636 30.8354 23.764 31.1258 23.6376C31.4162 23.5112 31.7334 23.448 32.0774 23.448C32.5494 23.448 32.9466 23.5512 33.269 23.7576C33.5914 23.964 33.8362 24.2492 34.0034 24.6132C34.1706 24.9772 34.2542 25.3992 34.2542 25.8792V30H32.7182V26.3736C32.7182 26.0136 32.6834 25.7092 32.6138 25.4604C32.5442 25.2116 32.4278 25.022 32.2646 24.8916C32.1014 24.7612 31.8822 24.696 31.607 24.696C31.1958 24.696 30.8698 24.8396 30.629 25.1268C30.3882 25.414 30.2678 25.8296 30.2678 26.3736V30H28.7318Z" fill="#C5C6CD"/>
</svg>
