<svg width="56" height="41" viewBox="0 0 56 41" fill="none" xmlns="http://www.w3.org/2000/svg">
<path d="M21.3266 7.99556L23.2766 8.82056C23.51 8.3539 23.7516 7.9039 24.0016 7.47056C24.2516 7.03723 24.5266 6.6039 24.8266 6.17056L23.4266 5.89556L21.3266 7.99556ZM24.8766 10.0706L27.7266 12.8956C28.4266 12.6289 29.1766 12.2206 29.9766 11.6706C30.7766 11.1206 31.5266 10.4956 32.2266 9.79556C33.3933 8.6289 34.3058 7.33306 34.9641 5.90806C35.6225 4.48306 35.91 3.17056 35.8266 1.97056C34.6266 1.88723 33.31 2.17473 31.8766 2.83306C30.4433 3.4914 29.1433 4.4039 27.9766 5.57056C27.2766 6.27056 26.6516 7.02056 26.1016 7.82056C25.5516 8.62056 25.1433 9.37056 24.8766 10.0706ZM29.3266 8.44556C28.9433 8.06223 28.7516 7.5914 28.7516 7.03306C28.7516 6.47473 28.9433 6.0039 29.3266 5.62056C29.71 5.23723 30.185 5.04556 30.7516 5.04556C31.3183 5.04556 31.7933 5.23723 32.1766 5.62056C32.56 6.0039 32.7516 6.47473 32.7516 7.03306C32.7516 7.5914 32.56 8.06223 32.1766 8.44556C31.7933 8.8289 31.3183 9.02056 30.7516 9.02056C30.185 9.02056 29.71 8.8289 29.3266 8.44556ZM29.8016 16.4706L31.9016 14.3706L31.6266 12.9706C31.1933 13.2706 30.76 13.5414 30.3266 13.7831C29.8933 14.0247 29.4433 14.2622 28.9766 14.4956L29.8016 16.4706ZM37.6266 0.145565C37.9433 2.16223 37.7475 4.12473 37.0391 6.03306C36.3308 7.9414 35.11 9.76223 33.3766 11.4956L33.8766 13.9706C33.9433 14.3039 33.9266 14.6289 33.8266 14.9456C33.7266 15.2622 33.56 15.5372 33.3266 15.7706L29.1266 19.9706L27.0266 15.0456L22.7516 10.7706L17.8266 8.67056L22.0016 4.47056C22.235 4.23723 22.5141 4.07056 22.8391 3.97056C23.1641 3.87056 23.4933 3.8539 23.8266 3.92056L26.3016 4.42056C28.035 2.68723 29.8516 1.46223 31.7516 0.745565C33.6516 0.0288979 35.61 -0.171102 37.6266 0.145565ZM19.6016 13.9456C20.185 13.3622 20.8975 13.0664 21.7391 13.0581C22.5808 13.0497 23.2933 13.3372 23.8766 13.9206C24.46 14.5039 24.7475 15.2164 24.7391 16.0581C24.7308 16.8997 24.435 17.6122 23.8516 18.1956C23.435 18.6122 22.7391 18.9706 21.7641 19.2706C20.7891 19.5706 19.4433 19.8372 17.7266 20.0706C17.96 18.3539 18.2266 17.0081 18.5266 16.0331C18.8266 15.0581 19.185 14.3622 19.6016 13.9456ZM21.0266 15.3456C20.86 15.5122 20.6933 15.8164 20.5266 16.2581C20.36 16.6997 20.2433 17.1456 20.1766 17.5956C20.6266 17.5289 21.0725 17.4164 21.5141 17.2581C21.9558 17.0997 22.26 16.9372 22.4266 16.7706C22.6266 16.5706 22.735 16.3289 22.7516 16.0456C22.7683 15.7622 22.6766 15.5206 22.4766 15.3206C22.2766 15.1206 22.035 15.0247 21.7516 15.0331C21.4683 15.0414 21.2266 15.1456 21.0266 15.3456Z" fill="#C5C6CD"/>
<path d="M0.959991 36.0706V27.5506H3.06243L5.41681 34.1505L7.76399 27.5506H9.86643V36.0706H8.3064V30.1906L6.15841 36.0562H4.66321L2.52002 30.1906V36.0706H0.959991ZM12.0768 36.0706V29.6626H13.6128V36.0706H12.0768ZM12.048 28.8058V27.4474H13.6416V28.8058H12.048ZM18.3888 36.2146C17.7344 36.2146 17.1932 36.1218 16.7652 35.9362C16.3372 35.7506 16.0124 35.495 15.7908 35.1694C15.5692 34.8438 15.4424 34.4714 15.4104 34.0522L16.98 33.985C17.0376 34.3178 17.1732 34.5774 17.3868 34.7637C17.6004 34.9501 17.936 35.0433 18.3936 35.0433C18.752 35.0433 19.0268 34.9845 19.218 34.8669C19.4092 34.7493 19.5048 34.5665 19.5048 34.3186C19.5048 34.173 19.4708 34.0522 19.4028 33.9562C19.3348 33.8602 19.2024 33.7758 19.0056 33.703C18.8088 33.6302 18.52 33.5602 18.1392 33.493C17.4928 33.3778 16.9864 33.2378 16.62 33.073C16.2536 32.9082 15.996 32.7018 15.8472 32.4538C15.6984 32.2058 15.624 31.901 15.624 31.5394C15.624 30.9394 15.854 30.4526 16.314 30.079C16.774 29.7054 17.4488 29.5186 18.3384 29.5186C18.956 29.5186 19.462 29.6158 19.8564 29.8102C20.2508 30.0046 20.5496 30.265 20.7528 30.5914C20.956 30.9178 21.0744 31.2786 21.108 31.6738L19.5528 31.7458C19.5432 31.5458 19.4936 31.3658 19.404 31.2058C19.3144 31.0458 19.1816 30.9198 19.0056 30.8278C18.8296 30.7358 18.5992 30.6898 18.3144 30.6898C17.9512 30.6898 17.6768 30.7626 17.4912 30.9082C17.3056 31.0538 17.2128 31.245 17.2128 31.4818C17.2128 31.6546 17.25 31.7966 17.3244 31.9078C17.3988 32.019 17.5284 32.1094 17.7132 32.1789C17.898 32.2485 18.1488 32.3089 18.4656 32.3601C19.1248 32.4577 19.6464 32.5897 20.0304 32.7561C20.4144 32.9225 20.6876 33.1317 20.85 33.3837C21.0124 33.6357 21.0936 33.941 21.0936 34.2994C21.0936 34.9122 20.8484 35.3846 20.358 35.7166C19.8676 36.0486 19.2112 36.2146 18.3888 36.2146ZM25.5048 36.2146C24.8504 36.2146 24.3092 36.1218 23.8812 35.9362C23.4532 35.7506 23.1284 35.495 22.9068 35.1694C22.6852 34.8438 22.5584 34.4714 22.5264 34.0522L24.096 33.985C24.1536 34.3178 24.2892 34.5774 24.5028 34.7637C24.7164 34.9501 25.052 35.0433 25.5096 35.0433C25.868 35.0433 26.1428 34.9845 26.334 34.8669C26.5252 34.7493 26.6208 34.5665 26.6208 34.3186C26.6208 34.173 26.5868 34.0522 26.5188 33.9562C26.4508 33.8602 26.3184 33.7758 26.1216 33.703C25.9248 33.6302 25.636 33.5602 25.2552 33.493C24.6088 33.3778 24.1024 33.2378 23.736 33.073C23.3696 32.9082 23.112 32.7018 22.9632 32.4538C22.8144 32.2058 22.74 31.901 22.74 31.5394C22.74 30.9394 22.97 30.4526 23.43 30.079C23.89 29.7054 24.5648 29.5186 25.4544 29.5186C26.072 29.5186 26.578 29.6158 26.9724 29.8102C27.3668 30.0046 27.6656 30.265 27.8688 30.5914C28.072 30.9178 28.1904 31.2786 28.224 31.6738L26.6688 31.7458C26.6592 31.5458 26.6096 31.3658 26.52 31.2058C26.4304 31.0458 26.2976 30.9198 26.1216 30.8278C25.9456 30.7358 25.7152 30.6898 25.4304 30.6898C25.0672 30.6898 24.7928 30.7626 24.6072 30.9082C24.4216 31.0538 24.3288 31.245 24.3288 31.4818C24.3288 31.6546 24.366 31.7966 24.4404 31.9078C24.5148 32.019 24.6444 32.1094 24.8292 32.1789C25.014 32.2485 25.2648 32.3089 25.5816 32.3601C26.2408 32.4577 26.7624 32.5897 27.1464 32.7561C27.5304 32.9225 27.8036 33.1317 27.966 33.3837C28.1284 33.6357 28.2096 33.941 28.2096 34.2994C28.2096 34.9122 27.9644 35.3846 27.474 35.7166C26.9836 36.0486 26.3272 36.2146 25.5048 36.2146ZM30.0168 36.0706V29.6626H31.5528V36.0706H30.0168ZM29.988 28.8058V27.4474H31.5816V28.8058H29.988ZM36.5016 36.2146C35.8696 36.2146 35.3168 36.077 34.8432 35.8018C34.3696 35.5266 34.0024 35.1374 33.7416 34.6342C33.4808 34.131 33.3504 33.5418 33.3504 32.8666C33.3504 32.1866 33.4808 31.597 33.7416 31.0978C34.0024 30.5986 34.3696 30.2106 34.8432 29.9338C35.3168 29.657 35.8696 29.5186 36.5016 29.5186C37.1336 29.5186 37.6852 29.657 38.1564 29.9338C38.6276 30.2106 38.9936 30.5986 39.2544 31.0978C39.5152 31.597 39.6456 32.1866 39.6456 32.8666C39.6456 33.5418 39.5152 34.131 39.2544 34.6342C38.9936 35.1374 38.6276 35.5266 38.1564 35.8018C37.6852 36.077 37.1336 36.2146 36.5016 36.2146ZM36.5016 34.9713C36.996 34.9713 37.3788 34.7861 37.65 34.4157C37.9212 34.0453 38.0568 33.529 38.0568 32.8666C38.0568 32.2074 37.9212 31.6918 37.65 31.3198C37.3788 30.9478 36.996 30.7618 36.5016 30.7618C36.0072 30.7618 35.6232 30.9478 35.3496 31.3198C35.076 31.6918 34.9392 32.2074 34.9392 32.8666C34.9392 33.529 35.076 34.0453 35.3496 34.4157C35.6232 34.7861 36.0072 34.9713 36.5016 34.9713ZM41.4408 36.0706V29.6626H42.8304L42.8904 31.4602L42.7032 31.3858C42.7704 30.9394 42.9032 30.5798 43.1016 30.307C43.3 30.0342 43.5444 29.8346 43.8348 29.7082C44.1252 29.5818 44.4424 29.5186 44.7864 29.5186C45.2584 29.5186 45.6556 29.6218 45.978 29.8282C46.3004 30.0346 46.5452 30.3198 46.7124 30.6838C46.8796 31.0478 46.9632 31.4698 46.9632 31.9498V36.0706H45.4272V32.4442C45.4272 32.0842 45.3924 31.7798 45.3228 31.531C45.2532 31.2822 45.1368 31.0926 44.9736 30.9622C44.8104 30.8318 44.5912 30.7666 44.316 30.7666C43.9048 30.7666 43.5788 30.9102 43.338 31.1974C43.0972 31.4846 42.9768 31.9002 42.9768 32.4442V36.0706H41.4408ZM51.7008 36.2146C51.0464 36.2146 50.5052 36.1218 50.0772 35.9362C49.6492 35.7506 49.3244 35.495 49.1028 35.1694C48.8812 34.8438 48.7544 34.4714 48.7224 34.0522L50.292 33.985C50.3496 34.3178 50.4852 34.5774 50.6988 34.7637C50.9124 34.9501 51.248 35.0433 51.7056 35.0433C52.064 35.0433 52.3388 34.9845 52.53 34.8669C52.7212 34.7493 52.8168 34.5665 52.8168 34.3186C52.8168 34.173 52.7828 34.0522 52.7148 33.9562C52.6468 33.8602 52.5144 33.7758 52.3176 33.703C52.1208 33.6302 51.832 33.5602 51.4512 33.493C50.8048 33.3778 50.2984 33.2378 49.932 33.073C49.5656 32.9082 49.308 32.7018 49.1592 32.4538C49.0104 32.2058 48.936 31.901 48.936 31.5394C48.936 30.9394 49.166 30.4526 49.626 30.079C50.086 29.7054 50.7608 29.5186 51.6504 29.5186C52.268 29.5186 52.774 29.6158 53.1684 29.8102C53.5628 30.0046 53.8616 30.265 54.0648 30.5914C54.268 30.9178 54.3864 31.2786 54.42 31.6738L52.8648 31.7458C52.8552 31.5458 52.8056 31.3658 52.716 31.2058C52.6264 31.0458 52.4936 30.9198 52.3176 30.8278C52.1416 30.7358 51.9112 30.6898 51.6264 30.6898C51.2632 30.6898 50.9888 30.7626 50.8032 30.9082C50.6176 31.0538 50.5248 31.245 50.5248 31.4818C50.5248 31.6546 50.562 31.7966 50.6364 31.9078C50.7108 32.019 50.8404 32.1094 51.0252 32.1789C51.21 32.2485 51.4608 32.3089 51.7776 32.3601C52.4368 32.4577 52.9584 32.5897 53.3424 32.7561C53.7264 32.9225 53.9996 33.1317 54.162 33.3837C54.3244 33.6357 54.4056 33.941 54.4056 34.2994C54.4056 34.9122 54.1604 35.3846 53.67 35.7166C53.1796 36.0486 52.5232 36.2146 51.7008 36.2146Z" fill="#C5C6CD"/>
</svg>
