<svg width="24" height="24" viewBox="0 0 24 24" fill="none" xmlns="http://www.w3.org/2000/svg">
<path d="M7.7625 10.2375C6.5875 9.0625 6 7.65 6 6C6 4.35 6.5875 2.9375 7.7625 1.7625C8.9375 0.5875 10.35 0 12 0C13.65 0 15.0625 0.5875 16.2375 1.7625C17.4125 2.9375 18 4.35 18 6C18 7.65 17.4125 9.0625 16.2375 10.2375C15.0625 11.4125 13.65 12 12 12C10.35 12 8.9375 11.4125 7.7625 10.2375ZM0 24V19.8C0 18.95 0.219 18.169 0.657 17.457C1.095 16.745 1.676 16.201 2.4 15.825C3.95 15.05 5.525 14.469 7.125 14.082C8.725 13.695 10.35 13.501 12 13.5C13.65 13.499 15.275 13.693 16.875 14.082C18.475 14.471 20.05 15.052 21.6 15.825C22.325 16.2 22.9065 16.744 23.3445 17.457C23.7825 18.17 24.001 18.951 24 19.8V24H0Z" fill="url(#paint0_linear_10_557)"/>
<defs>
<linearGradient id="paint0_linear_10_557" x1="0" y1="12" x2="24" y2="12" gradientUnits="userSpaceOnUse">
<stop stop-color="#00D4FF"/>
<stop offset="1" stop-color="#4F46E5"/>
</linearGradient>
</defs>
</svg>
