<svg width="54" height="40" viewBox="0 0 54 40" fill="none" xmlns="http://www.w3.org/2000/svg">
<path d="M24.1149 20L23.7149 16.8C23.4983 16.7167 23.2941 16.6167 23.1024 16.5C22.9108 16.3833 22.7233 16.2583 22.5399 16.125L19.5649 17.375L16.8149 12.625L19.3899 10.675C19.3733 10.5583 19.3649 10.4458 19.3649 10.3375C19.3649 10.2292 19.3649 10.1167 19.3649 10C19.3649 9.88333 19.3649 9.77083 19.3649 9.6625C19.3649 9.55417 19.3733 9.44167 19.3899 9.325L16.8149 7.375L19.5649 2.625L22.5399 3.875C22.7233 3.74167 22.9149 3.61667 23.1149 3.5C23.3149 3.38333 23.5149 3.28333 23.7149 3.2L24.1149 0H29.6149L30.0149 3.2C30.2316 3.28333 30.4358 3.38333 30.6274 3.5C30.8191 3.61667 31.0066 3.74167 31.1899 3.875L34.1649 2.625L36.9149 7.375L34.3399 9.325C34.3566 9.44167 34.3649 9.55417 34.3649 9.6625C34.3649 9.77083 34.3649 9.88333 34.3649 10C34.3649 10.1167 34.3649 10.2292 34.3649 10.3375C34.3649 10.4458 34.3483 10.5583 34.3149 10.675L36.8899 12.625L34.1399 17.375L31.1899 16.125C31.0066 16.2583 30.8149 16.3833 30.6149 16.5C30.4149 16.6167 30.2149 16.7167 30.0149 16.8L29.6149 20H24.1149ZM25.8649 18H27.8399L28.1899 15.35C28.7066 15.2167 29.1858 15.0208 29.6274 14.7625C30.0691 14.5042 30.4733 14.1917 30.8399 13.825L33.3149 14.85L34.2899 13.15L32.1399 11.525C32.2233 11.2917 32.2816 11.0458 32.3149 10.7875C32.3483 10.5292 32.3649 10.2667 32.3649 10C32.3649 9.73333 32.3483 9.47083 32.3149 9.2125C32.2816 8.95417 32.2233 8.70833 32.1399 8.475L34.2899 6.85L33.3149 5.15L30.8399 6.2C30.4733 5.81667 30.0691 5.49583 29.6274 5.2375C29.1858 4.97917 28.7066 4.78333 28.1899 4.65L27.8649 2H25.8899L25.5399 4.65C25.0233 4.78333 24.5441 4.97917 24.1024 5.2375C23.6608 5.49583 23.2566 5.80833 22.8899 6.175L20.4149 5.15L19.4399 6.85L21.5899 8.45C21.5066 8.7 21.4483 8.95 21.4149 9.2C21.3816 9.45 21.3649 9.71667 21.3649 10C21.3649 10.2667 21.3816 10.525 21.4149 10.775C21.4483 11.025 21.5066 11.275 21.5899 11.525L19.4399 13.15L20.4149 14.85L22.8899 13.8C23.2566 14.1833 23.6608 14.5042 24.1024 14.7625C24.5441 15.0208 25.0233 15.2167 25.5399 15.35L25.8649 18ZM26.9149 13.5C27.8816 13.5 28.7066 13.1583 29.3899 12.475C30.0733 11.7917 30.4149 10.9667 30.4149 10C30.4149 9.03333 30.0733 8.20833 29.3899 7.525C28.7066 6.84167 27.8816 6.5 26.9149 6.5C25.9316 6.5 25.1024 6.84167 24.4274 7.525C23.7524 8.20833 23.4149 9.03333 23.4149 10C23.4149 10.9667 23.7524 11.7917 24.4274 12.475C25.1024 13.1583 25.9316 13.5 26.9149 13.5Z" fill="#C5C6CD"/>
<path d="M4.18081 36.192C3.47361 36.192 2.8632 36.068 2.3496 35.82C1.836 35.572 1.4332 35.226 1.1412 34.782C0.849198 34.338 0.680798 33.8184 0.635999 33.2232L2.22003 33.1368C2.26963 33.5032 2.37603 33.8144 2.53923 34.0704C2.70242 34.3264 2.92202 34.52 3.19802 34.6512C3.47402 34.7824 3.80961 34.848 4.20481 34.848C4.54081 34.848 4.8264 34.8064 5.0616 34.7232C5.2968 34.64 5.47639 34.516 5.60039 34.3512C5.72439 34.1864 5.78639 33.984 5.78639 33.744C5.78639 33.5248 5.73399 33.3308 5.62919 33.162C5.52439 32.9932 5.3236 32.8388 5.0268 32.6988C4.73 32.5588 4.29121 32.4208 3.71041 32.2848C3.00641 32.12 2.44201 31.9352 2.0172 31.7304C1.5924 31.5256 1.2844 31.2696 1.0932 30.9624C0.901999 30.6552 0.806398 30.2704 0.806398 29.808C0.806398 29.3088 0.929198 28.87 1.1748 28.4916C1.4204 28.1132 1.7728 27.818 2.232 27.606C2.69121 27.394 3.24001 27.288 3.87841 27.288C4.55682 27.288 5.13282 27.41 5.60642 27.654C6.08002 27.898 6.45282 28.232 6.72482 28.656C6.99682 29.08 7.16322 29.5664 7.22402 30.1152L5.64959 30.1968C5.61439 29.8848 5.5228 29.6116 5.3748 29.3772C5.2268 29.1428 5.0264 28.96 4.7736 28.8288C4.52081 28.6976 4.21441 28.632 3.85441 28.632C3.40322 28.632 3.04722 28.7348 2.78642 28.9404C2.52563 29.146 2.39523 29.416 2.39523 29.7504C2.39523 29.9792 2.45083 30.1692 2.56203 30.3204C2.67323 30.4716 2.86723 30.6028 3.14402 30.714C3.42082 30.8252 3.81282 30.9392 4.32001 31.056C5.08321 31.2192 5.68842 31.4236 6.13562 31.6692C6.58282 31.9148 6.90122 32.2024 7.09082 32.532C7.28042 32.8616 7.37522 33.2384 7.37522 33.6624C7.37522 34.1808 7.24322 34.63 6.97922 35.01C6.71522 35.39 6.34402 35.682 5.86562 35.886C5.38722 36.09 4.82561 36.192 4.18081 36.192ZM12.3312 36.144C11.6928 36.144 11.1388 36.0064 10.6692 35.7312C10.1996 35.456 9.8364 35.0668 9.5796 34.5636C9.3228 34.0604 9.1944 33.4712 9.1944 32.796C9.1944 32.1208 9.3228 31.5336 9.5796 31.0344C9.8364 30.5352 10.1972 30.146 10.662 29.8668C11.1268 29.5876 11.6736 29.448 12.3024 29.448C12.912 29.448 13.4456 29.5844 13.9032 29.8572C14.3608 30.13 14.7148 30.5224 14.9652 31.0344C15.2156 31.5464 15.3408 32.1616 15.3408 32.88V33.2232H10.788C10.8184 33.788 10.9716 34.2112 11.2476 34.4928C11.5236 34.7744 11.8912 34.9152 12.3504 34.9152C12.6928 34.9152 12.9772 34.8388 13.2036 34.686C13.43 34.5332 13.5888 34.316 13.68 34.0344L15.2496 34.1328C15.0784 34.752 14.734 35.242 14.2164 35.6028C13.6988 35.9636 13.0704 36.144 12.3312 36.144ZM10.788 32.1912H13.7472C13.7152 31.6712 13.5684 31.2856 13.3068 31.0344C13.0452 30.7832 12.7104 30.6576 12.3024 30.6576C11.8912 30.6576 11.5516 30.7892 11.2836 31.0524C11.0156 31.3156 10.8504 31.6952 10.788 32.1912ZM19.4832 36C18.8464 36 18.378 35.8528 18.078 35.5584C17.778 35.264 17.628 34.8 17.628 34.1664V28.0896H19.164V34.0176C19.164 34.3184 19.2288 34.5256 19.3584 34.6392C19.488 34.7528 19.6864 34.8096 19.9536 34.8096H20.856V36H19.4832ZM16.6248 30.7824V29.592H20.856V30.7824H16.6248ZM23.6136 36C22.9768 36 22.5084 35.8528 22.2084 35.5584C21.9084 35.264 21.7584 34.8 21.7584 34.1664V28.0896H23.2945V34.0176C23.2945 34.3184 23.3593 34.5256 23.4889 34.6392C23.6185 34.7528 23.8169 34.8096 24.0841 34.8096H24.9865V36H23.6136ZM20.7552 30.7824V29.592H24.9865V30.7824H20.7552ZM26.6208 36V29.592H28.1568V36H26.6208ZM26.592 28.7352V27.3768H28.1856V28.7352H26.592ZM30.5208 36V29.592H31.9104L31.9704 31.3896L31.7832 31.3152C31.8504 30.8688 31.9832 30.5092 32.1816 30.2364C32.38 29.9636 32.6244 29.764 32.9148 29.6376C33.2052 29.5112 33.5224 29.448 33.8664 29.448C34.3384 29.448 34.7356 29.5512 35.058 29.7576C35.3804 29.964 35.6252 30.2492 35.7924 30.6132C35.9596 30.9772 36.0432 31.3992 36.0432 31.8792V36H34.5072V32.3736C34.5072 32.0136 34.4724 31.7092 34.4028 31.4604C34.3332 31.2116 34.2168 31.022 34.0536 30.8916C33.8904 30.7612 33.6712 30.696 33.396 30.696C32.9848 30.696 32.6588 30.8396 32.418 31.1268C32.1772 31.414 32.0568 31.8296 32.0568 32.3736V36H30.5208ZM40.9056 37.944C40.344 37.944 39.864 37.868 39.4656 37.716C39.0672 37.564 38.7456 37.3504 38.5008 37.0752C38.256 36.8 38.0864 36.4832 37.992 36.1248L39.576 36.0144C39.6528 36.2528 39.7908 36.4404 39.99 36.5772C40.1892 36.714 40.4944 36.7824 40.9056 36.7824C41.3824 36.7824 41.7484 36.676 42.0036 36.4632C42.2588 36.2504 42.3864 35.9184 42.3864 35.4672V34.6608C42.2344 34.9712 41.9904 35.22 41.6544 35.4072C41.3184 35.5944 40.9424 35.688 40.5264 35.688C39.9968 35.688 39.526 35.5576 39.114 35.2968C38.702 35.036 38.3804 34.672 38.1492 34.2048C37.918 33.7376 37.8024 33.1944 37.8024 32.5752C37.8024 31.9608 37.9168 31.4196 38.1456 30.9516C38.3744 30.4836 38.6924 30.116 39.0996 29.8488C39.5068 29.5816 39.9728 29.448 40.4976 29.448C40.9616 29.448 41.3612 29.552 41.6964 29.76C42.0316 29.968 42.2776 30.2448 42.4344 30.5904V29.592H43.932V35.4336C43.932 35.9808 43.8064 36.4412 43.5552 36.8148C43.304 37.1884 42.952 37.47 42.4992 37.6596C42.0464 37.8492 41.5152 37.944 40.9056 37.944ZM40.8864 34.4832C41.344 34.4832 41.7088 34.3132 41.9808 33.9732C42.2528 33.6332 42.3912 33.164 42.396 32.5656C42.4008 32.1672 42.342 31.8252 42.2196 31.5396C42.0972 31.254 41.922 31.034 41.694 30.8796C41.466 30.7252 41.1968 30.648 40.8864 30.648C40.4128 30.648 40.0452 30.8212 39.7836 31.1676C39.522 31.514 39.3912 31.98 39.3912 32.5656C39.3912 33.1544 39.526 33.6212 39.7956 33.966C40.0652 34.3108 40.4288 34.4832 40.8864 34.4832ZM48.7008 36.144C48.0464 36.144 47.5052 36.0512 47.0772 35.8656C46.6492 35.68 46.3244 35.4244 46.1028 35.0988C45.8812 34.7732 45.7544 34.4008 45.7224 33.9816L47.292 33.9144C47.3496 34.2472 47.4852 34.5068 47.6988 34.6932C47.9124 34.8796 48.248 34.9728 48.7056 34.9728C49.064 34.9728 49.3388 34.914 49.53 34.7964C49.7212 34.6788 49.8168 34.496 49.8168 34.248C49.8168 34.1024 49.7828 33.9816 49.7148 33.8856C49.6468 33.7896 49.5144 33.7052 49.3176 33.6324C49.1208 33.5596 48.832 33.4896 48.4512 33.4224C47.8048 33.3072 47.2984 33.1672 46.932 33.0024C46.5656 32.8376 46.308 32.6312 46.1592 32.3832C46.0104 32.1352 45.936 31.8304 45.936 31.4688C45.936 30.8688 46.166 30.382 46.626 30.0084C47.086 29.6348 47.7608 29.448 48.6504 29.448C49.268 29.448 49.774 29.5452 50.1684 29.7396C50.5628 29.934 50.8616 30.1944 51.0648 30.5208C51.268 30.8472 51.3864 31.208 51.42 31.6032L49.8648 31.6752C49.8552 31.4752 49.8056 31.2952 49.716 31.1352C49.6264 30.9752 49.4936 30.8492 49.3176 30.7572C49.1416 30.6652 48.9112 30.6192 48.6264 30.6192C48.2632 30.6192 47.9888 30.692 47.8032 30.8376C47.6176 30.9832 47.5248 31.1744 47.5248 31.4112C47.5248 31.584 47.562 31.726 47.6364 31.8372C47.7108 31.9484 47.8404 32.0388 48.0252 32.1084C48.21 32.178 48.4608 32.2384 48.7776 32.2896C49.4368 32.3872 49.9584 32.5192 50.3424 32.6856C50.7264 32.852 50.9996 33.0612 51.162 33.3132C51.3244 33.5652 51.4056 33.8704 51.4056 34.2288C51.4056 34.8416 51.1604 35.314 50.67 35.646C50.1796 35.978 49.5232 36.144 48.7008 36.144Z" fill="#C5C6CD"/>
</svg>
