<svg width="55" height="37" viewBox="0 0 55 37" fill="none" xmlns="http://www.w3.org/2000/svg">
<path d="M19.065 15V17H35.065V15H19.065ZM19.065 4H21.265C21.1817 3.85 21.1275 3.69167 21.1025 3.525C21.0775 3.35833 21.065 3.18333 21.065 3C21.065 2.16667 21.3567 1.45833 21.94 0.875C22.5233 0.291667 23.2317 0 24.065 0C24.565 0 25.0275 0.129167 25.4525 0.3875C25.8775 0.645833 26.2483 0.966667 26.565 1.35L27.065 2L27.565 1.35C27.865 0.95 28.2317 0.625 28.665 0.375C29.0983 0.125 29.565 0 30.065 0C30.8983 0 31.6067 0.291667 32.19 0.875C32.7733 1.45833 33.065 2.16667 33.065 3C33.065 3.18333 33.0525 3.35833 33.0275 3.525C33.0025 3.69167 32.9483 3.85 32.865 4H35.065C35.615 4 36.0858 4.19583 36.4775 4.5875C36.8692 4.97917 37.065 5.45 37.065 6V17C37.065 17.55 36.8692 18.0208 36.4775 18.4125C36.0858 18.8042 35.615 19 35.065 19H19.065C18.515 19 18.0442 18.8042 17.6525 18.4125C17.2608 18.0208 17.065 17.55 17.065 17V6C17.065 5.45 17.2608 4.97917 17.6525 4.5875C18.0442 4.19583 18.515 4 19.065 4ZM19.065 12H35.065V6H29.965L32.065 8.85L30.465 10L27.065 5.4L23.665 10L22.065 8.85L24.115 6H19.065V12ZM24.065 4C24.3483 4 24.5858 3.90417 24.7775 3.7125C24.9692 3.52083 25.065 3.28333 25.065 3C25.065 2.71667 24.9692 2.47917 24.7775 2.2875C24.5858 2.09583 24.3483 2 24.065 2C23.7817 2 23.5442 2.09583 23.3525 2.2875C23.1608 2.47917 23.065 2.71667 23.065 3C23.065 3.28333 23.1608 3.52083 23.3525 3.7125C23.5442 3.90417 23.7817 4 24.065 4ZM30.065 4C30.3483 4 30.5858 3.90417 30.7775 3.7125C30.9692 3.52083 31.065 3.28333 31.065 3C31.065 2.71667 30.9692 2.47917 30.7775 2.2875C30.5858 2.09583 30.3483 2 30.065 2C29.7817 2 29.5442 2.09583 29.3525 2.2875C29.1608 2.47917 29.065 2.71667 29.065 3C29.065 3.28333 29.1608 3.52083 29.3525 3.7125C29.5442 3.90417 29.7817 4 30.065 4Z" fill="#C5C6CD"/>
<path d="M1.27099 33V24.48H4.83501C5.45101 24.48 5.98381 24.584 6.43341 24.792C6.88302 25 7.23062 25.2956 7.47622 25.6788C7.72182 26.062 7.84462 26.5144 7.84462 27.036C7.84462 27.4264 7.76022 27.7732 7.59142 28.0764C7.42262 28.3796 7.19662 28.624 6.91342 28.8096C6.63022 28.9952 6.31582 29.1072 5.97022 29.1456L5.91742 29.0328C6.46942 29.0328 6.89462 29.1552 7.19302 29.4C7.49142 29.6448 7.66142 30.0232 7.70302 30.5352L7.92382 33H6.33739L6.15979 30.7632C6.13419 30.4272 6.02499 30.1792 5.83219 30.0192C5.63939 29.8592 5.31739 29.7792 4.8662 29.7792H2.83102V33H1.27099ZM2.83102 28.4208H4.7414C5.21019 28.4208 5.57659 28.3088 5.84059 28.0848C6.10459 27.8608 6.23659 27.5432 6.23659 27.132C6.23659 26.7128 6.10219 26.3924 5.83339 26.1708C5.56459 25.9492 5.1742 25.8384 4.6622 25.8384H2.83102V28.4208ZM12.5942 33.144C11.9558 33.144 11.4018 33.0064 10.9322 32.7312C10.4626 32.456 10.0994 32.0668 9.8426 31.5636C9.5858 31.0604 9.4574 30.4712 9.4574 29.796C9.4574 29.1208 9.5858 28.5336 9.8426 28.0344C10.0994 27.5352 10.4602 27.146 10.925 26.8668C11.3898 26.5876 11.9366 26.448 12.5654 26.448C13.175 26.448 13.7086 26.5844 14.1662 26.8572C14.6238 27.13 14.9778 27.5224 15.2282 28.0344C15.4786 28.5464 15.6038 29.1616 15.6038 29.88V30.2232H11.051C11.0814 30.788 11.2346 31.2112 11.5106 31.4928C11.7866 31.7744 12.1542 31.9152 12.6134 31.9152C12.9558 31.9152 13.2402 31.8388 13.4666 31.686C13.693 31.5332 13.8518 31.316 13.943 31.0344L15.5126 31.1328C15.3414 31.752 14.997 32.242 14.4794 32.6028C13.9618 32.9636 13.3334 33.144 12.5942 33.144ZM11.051 29.1912H14.0102C13.9782 28.6712 13.8314 28.2856 13.5698 28.0344C13.3082 27.7832 12.9734 27.6576 12.5654 27.6576C12.1542 27.6576 11.8146 27.7892 11.5466 28.0524C11.2786 28.3156 11.1134 28.6952 11.051 29.1912ZM18.527 33L16.5974 26.592H18.1718L19.4102 31.2624L20.7014 26.592H22.0406L23.3366 31.2624L24.5822 26.592H26.1566L24.227 33H22.6382L21.371 28.7064L20.1086 33H18.527ZM29.3822 33.144C28.7166 33.144 28.1794 32.9904 27.7706 32.6832C27.3618 32.376 27.1574 31.9472 27.1574 31.3968C27.1574 30.84 27.3294 30.4064 27.6734 30.096C28.0174 29.7856 28.539 29.5616 29.2382 29.424L31.3694 29.0088C31.3694 28.5528 31.265 28.2104 31.0562 27.9816C30.8474 27.7528 30.5406 27.6384 30.1358 27.6384C29.763 27.6384 29.4702 27.7236 29.2574 27.894C29.0446 28.0644 28.9014 28.3112 28.8278 28.6344L27.2654 28.5552C27.3886 27.8816 27.6986 27.362 28.1954 26.9964C28.6922 26.6308 29.339 26.448 30.1358 26.448C31.0478 26.448 31.7374 26.6772 32.2046 27.1356C32.6718 27.594 32.9054 28.2512 32.9054 29.1072V31.4424C32.9054 31.612 32.9346 31.7276 32.993 31.7892C33.0514 31.8508 33.1406 31.8816 33.2606 31.8816H33.4646V33C33.4166 33.0144 33.339 33.0268 33.2318 33.0372C33.1246 33.0476 33.0166 33.0528 32.9078 33.0528C32.6422 33.0528 32.4058 33.0092 32.1986 32.922C31.9914 32.8348 31.8302 32.6868 31.715 32.478C31.5998 32.2692 31.5422 31.9808 31.5422 31.6128L31.6814 31.704C31.6126 31.9856 31.4734 32.2356 31.2638 32.454C31.0542 32.6724 30.7886 32.842 30.467 32.9628C30.1454 33.0836 29.7838 33.144 29.3822 33.144ZM29.699 32.0256C30.0398 32.0256 30.3346 31.9588 30.5834 31.8252C30.8322 31.6916 31.0254 31.5036 31.163 31.2612C31.3006 31.0188 31.3694 30.736 31.3694 30.4128V30.0528L29.7086 30.3888C29.3694 30.456 29.1242 30.5604 28.973 30.702C28.8218 30.8436 28.7462 31.0272 28.7462 31.2528C28.7462 31.4976 28.829 31.6876 28.9946 31.8228C29.1602 31.958 29.395 32.0256 29.699 32.0256ZM35.0678 33V26.592H36.503L36.5606 28.3728L36.4358 28.3416C36.5318 27.7272 36.713 27.282 36.9794 27.006C37.2458 26.73 37.6094 26.592 38.0702 26.592H38.6654V27.9072H38.0678C37.7382 27.9072 37.4658 27.9556 37.2506 28.0524C37.0354 28.1492 36.8738 28.2996 36.7658 28.5036C36.6578 28.7076 36.6038 28.976 36.6038 29.3088V33H35.0678ZM42.3758 33.144C41.8302 33.144 41.3586 33.0072 40.961 32.7336C40.5634 32.46 40.2574 32.0728 40.043 31.572C39.8286 31.0712 39.7214 30.4792 39.7214 29.796C39.7214 29.1128 39.8294 28.5208 40.0454 28.02C40.2614 27.5192 40.569 27.132 40.9682 26.8584C41.3674 26.5848 41.8366 26.448 42.3758 26.448C42.8222 26.448 43.215 26.5404 43.5542 26.7252C43.8934 26.91 44.1494 27.168 44.3222 27.4992V24.48H45.8582V33H44.4038L44.3678 32.0496C44.1918 32.3936 43.9278 32.662 43.5758 32.8548C43.2238 33.0476 42.8238 33.144 42.3758 33.144ZM42.839 31.9008C43.1574 31.9008 43.4266 31.8192 43.6466 31.656C43.8666 31.4928 44.0342 31.254 44.1494 30.9396C44.2646 30.6252 44.3222 30.244 44.3222 29.796C44.3222 29.3384 44.2646 28.9536 44.1494 28.6416C44.0342 28.3296 43.8666 28.0932 43.6466 27.9324C43.4266 27.7716 43.1574 27.6912 42.839 27.6912C42.3718 27.6912 42.0002 27.8788 41.7242 28.254C41.4482 28.6292 41.3102 29.1432 41.3102 29.796C41.3102 30.4376 41.449 30.9488 41.7266 31.3296C42.0042 31.7104 42.375 31.9008 42.839 31.9008ZM50.6318 33.144C49.9774 33.144 49.4362 33.0512 49.0082 32.8656C48.5802 32.68 48.2554 32.4244 48.0338 32.0988C47.8122 31.7732 47.6854 31.4008 47.6534 30.9816L49.223 30.9144C49.2806 31.2472 49.4162 31.5068 49.6298 31.6932C49.8434 31.8796 50.179 31.9728 50.6366 31.9728C50.995 31.9728 51.2698 31.914 51.461 31.7964C51.6522 31.6788 51.7478 31.496 51.7478 31.248C51.7478 31.1024 51.7138 30.9816 51.6458 30.8856C51.5778 30.7896 51.4454 30.7052 51.2486 30.6324C51.0518 30.5596 50.763 30.4896 50.3822 30.4224C49.7358 30.3072 49.2294 30.1672 48.863 30.0024C48.4966 29.8376 48.239 29.6312 48.0902 29.3832C47.9414 29.1352 47.867 28.8304 47.867 28.4688C47.867 27.8688 48.097 27.382 48.557 27.0084C49.017 26.6348 49.6918 26.448 50.5814 26.448C51.199 26.448 51.705 26.5452 52.0994 26.7396C52.4938 26.934 52.7926 27.1944 52.9958 27.5208C53.199 27.8472 53.3174 28.208 53.351 28.6032L51.7958 28.6752C51.7862 28.4752 51.7366 28.2952 51.647 28.1352C51.5574 27.9752 51.4246 27.8492 51.2486 27.7572C51.0726 27.6652 50.8422 27.6192 50.5574 27.6192C50.1942 27.6192 49.9198 27.692 49.7342 27.8376C49.5486 27.9832 49.4558 28.1744 49.4558 28.4112C49.4558 28.584 49.493 28.726 49.5674 28.8372C49.6418 28.9484 49.7714 29.0388 49.9562 29.1084C50.141 29.178 50.3918 29.2384 50.7086 29.2896C51.3678 29.3872 51.8894 29.5192 52.2734 29.6856C52.6574 29.852 52.9306 30.0612 53.093 30.3132C53.2554 30.5652 53.3366 30.8704 53.3366 31.2288C53.3366 31.8416 53.0914 32.314 52.601 32.646C52.1106 32.978 51.4542 33.144 50.6318 33.144Z" fill="#C5C6CD"/>
</svg>
