<svg width="40" height="40" viewBox="0 0 40 40" fill="none" xmlns="http://www.w3.org/2000/svg">
<path d="M26.2151 6.47328C28.6051 4.07328 32.1017 4.02328 34.0367 5.96661C35.9767 7.91328 35.9251 11.4333 33.5317 13.8333L29.4934 17.8883C29.266 18.1243 29.1405 18.4403 29.1438 18.768C29.1471 19.0958 29.279 19.4091 29.5111 19.6406C29.7432 19.872 30.0569 20.003 30.3846 20.0054C30.7124 20.0078 31.028 19.8813 31.2634 19.6533L35.3034 15.5983C38.4884 12.3999 38.8884 7.29494 35.8084 4.20161C32.7251 1.10661 27.6301 1.50994 24.4417 4.70828L16.3651 12.8199C13.1801 16.0183 12.7801 21.1233 15.8601 24.2149C15.9751 24.3346 16.1128 24.4301 16.2652 24.4959C16.4175 24.5618 16.5814 24.5966 16.7474 24.5985C16.9133 24.6003 17.078 24.569 17.2317 24.5065C17.3855 24.4441 17.5253 24.3516 17.6429 24.2345C17.7605 24.1174 17.8537 23.9781 17.9169 23.8246C17.9801 23.6712 18.0121 23.5067 18.0111 23.3407C18.01 23.1748 17.976 23.0107 17.9108 22.858C17.8457 22.7054 17.7508 22.5672 17.6317 22.4516C15.6917 20.5049 15.7451 16.9849 18.1367 14.5849L26.2151 6.47328Z" fill="url(#paint0_linear_13_302)"/>
<path d="M24.1416 15.7833C23.9073 15.5484 23.5893 15.4161 23.2576 15.4157C22.9258 15.4152 22.6074 15.5465 22.3725 15.7808C22.1375 16.0151 22.0053 16.3331 22.0048 16.6649C22.0043 16.9967 22.1357 17.315 22.37 17.55C24.31 19.4966 24.2583 23.015 21.865 25.4166L13.7866 33.5266C11.395 35.9266 7.89828 35.9766 5.96328 34.0333C4.02328 32.0866 4.07662 28.5666 6.46828 26.1666L10.5083 22.1116C10.6242 21.9953 10.716 21.8573 10.7786 21.7055C10.8411 21.5536 10.8732 21.391 10.8729 21.2268C10.8725 21.0626 10.8399 20.9 10.7768 20.7485C10.7136 20.5969 10.6213 20.4592 10.505 20.3433C10.3886 20.2274 10.2506 20.1356 10.0988 20.073C9.94696 20.0105 9.7843 19.9784 9.62009 19.9787C9.45589 19.9791 9.29335 20.0117 9.14177 20.0748C8.99018 20.1379 8.85251 20.2303 8.73662 20.3466L4.69662 24.4016C1.51162 27.6016 1.11162 32.705 4.19162 35.7983C7.27495 38.895 12.37 38.49 15.5583 35.2916L23.6366 27.18C26.8216 23.9833 27.2216 18.875 24.1416 15.7833Z" fill="url(#paint1_linear_13_302)"/>
<defs>
<linearGradient id="paint0_linear_13_302" x1="13.751" y1="13.3406" x2="37.9175" y2="13.3406" gradientUnits="userSpaceOnUse">
<stop stop-color="#00D4FF"/>
<stop offset="1" stop-color="#4F46E5"/>
</linearGradient>
<linearGradient id="paint1_linear_13_302" x1="2.08252" y1="26.6668" x2="26.2507" y2="26.6668" gradientUnits="userSpaceOnUse">
<stop stop-color="#00D4FF"/>
<stop offset="1" stop-color="#4F46E5"/>
</linearGradient>
</defs>
</svg>
