<svg width="46" height="42" viewBox="0 0 46 42" fill="none" xmlns="http://www.w3.org/2000/svg">
<rect x="0.5" y="0.5" width="45" height="41" rx="20.5" stroke="url(#paint0_linear_13_363)"/>
<path d="M22.5554 28.1989C21.4948 28.1989 20.5502 28.0166 19.7216 27.652C18.8977 27.2827 18.2467 26.776 17.7685 26.1321C17.295 25.4834 17.0511 24.7353 17.0369 23.8878H20.1335C20.1525 24.2429 20.2685 24.5554 20.4815 24.8253C20.6993 25.0904 20.9882 25.2964 21.348 25.4432C21.7079 25.59 22.1127 25.6634 22.5625 25.6634C23.0312 25.6634 23.4455 25.5805 23.8054 25.4148C24.1652 25.2491 24.447 25.0194 24.6506 24.7259C24.8542 24.4323 24.956 24.0937 24.956 23.7102C24.956 23.322 24.8471 22.9787 24.6293 22.6804C24.4162 22.3774 24.1084 22.1406 23.706 21.9702C23.3082 21.7997 22.8348 21.7145 22.2855 21.7145H20.929V19.456H22.2855C22.7495 19.456 23.1591 19.3755 23.5142 19.2145C23.8741 19.0535 24.1534 18.831 24.3523 18.5469C24.5511 18.258 24.6506 17.9219 24.6506 17.5384C24.6506 17.1738 24.563 16.8542 24.3878 16.5795C24.2173 16.3002 23.9759 16.0824 23.6634 15.9261C23.3556 15.7699 22.9957 15.6918 22.5838 15.6918C22.1671 15.6918 21.786 15.7675 21.4403 15.919C21.0947 16.0658 20.8177 16.2765 20.6094 16.5511C20.401 16.8258 20.2898 17.1477 20.2756 17.517H17.3281C17.3423 16.679 17.5814 15.9403 18.0455 15.3011C18.5095 14.6619 19.1345 14.1624 19.9205 13.8026C20.7112 13.438 21.6037 13.2557 22.598 13.2557C23.6018 13.2557 24.4801 13.438 25.233 13.8026C25.9858 14.1671 26.5705 14.6596 26.9872 15.2798C27.4086 15.8954 27.617 16.5866 27.6122 17.3537C27.617 18.1681 27.3636 18.8475 26.8523 19.392C26.3456 19.9366 25.6851 20.2822 24.8707 20.429V20.5426C25.9408 20.6799 26.7552 21.0516 27.3139 21.6577C27.8774 22.259 28.1567 23.0118 28.152 23.9162C28.1567 24.7448 27.9176 25.4811 27.4347 26.125C26.9564 26.7689 26.2959 27.2756 25.4531 27.6449C24.6103 28.0142 23.6444 28.1989 22.5554 28.1989Z" fill="url(#paint1_linear_13_363)"/>
<defs>
<linearGradient id="paint0_linear_13_363" x1="0" y1="21" x2="46" y2="21" gradientUnits="userSpaceOnUse">
<stop stop-color="#00D4FF"/>
<stop offset="1" stop-color="#4F46E5"/>
</linearGradient>
<linearGradient id="paint1_linear_13_363" x1="16" y1="21" x2="30" y2="21" gradientUnits="userSpaceOnUse">
<stop stop-color="#00D4FF"/>
<stop offset="1" stop-color="#4F46E5"/>
</linearGradient>
</defs>
</svg>
