<svg width="45" height="42" viewBox="0 0 45 42" fill="none" xmlns="http://www.w3.org/2000/svg">
<rect x="0.5" y="0.5" width="44" height="41" rx="20.5" stroke="url(#paint0_linear_13_356)"/>
<path d="M17.179 28V25.7841L22.3565 20.9901C22.7969 20.5639 23.1662 20.1804 23.4645 19.8395C23.7675 19.4986 23.9972 19.1648 24.1534 18.8381C24.3097 18.5066 24.3878 18.1491 24.3878 17.7656C24.3878 17.3395 24.2907 16.9725 24.0966 16.6648C23.9025 16.3523 23.6373 16.1132 23.3011 15.9474C22.965 15.777 22.5838 15.6918 22.1577 15.6918C21.7126 15.6918 21.3243 15.7817 20.9929 15.9616C20.6615 16.1416 20.4058 16.3996 20.2259 16.7358C20.0459 17.072 19.956 17.4721 19.956 17.9361H17.0369C17.0369 16.9844 17.2524 16.1581 17.6832 15.4574C18.1141 14.7566 18.7178 14.2145 19.4943 13.831C20.2708 13.4474 21.1657 13.2557 22.179 13.2557C23.2206 13.2557 24.1274 13.4403 24.8991 13.8097C25.6757 14.1742 26.2794 14.6809 26.7102 15.3295C27.1411 15.9782 27.3565 16.7216 27.3565 17.5597C27.3565 18.1089 27.2476 18.651 27.0298 19.1861C26.8168 19.7211 26.4356 20.3153 25.8864 20.9688C25.3371 21.6174 24.563 22.3963 23.5639 23.3054L21.4403 25.3864V25.4858H27.5483V28H17.179Z" fill="url(#paint1_linear_13_356)"/>
<defs>
<linearGradient id="paint0_linear_13_356" x1="0" y1="21" x2="45" y2="21" gradientUnits="userSpaceOnUse">
<stop stop-color="#00D4FF"/>
<stop offset="1" stop-color="#4F46E5"/>
</linearGradient>
<linearGradient id="paint1_linear_13_356" x1="16" y1="21" x2="29" y2="21" gradientUnits="userSpaceOnUse">
<stop stop-color="#00D4FF"/>
<stop offset="1" stop-color="#4F46E5"/>
</linearGradient>
</defs>
</svg>
