<svg width="24" height="11" viewBox="0 0 24 11" fill="none" xmlns="http://www.w3.org/2000/svg">
<path d="M5.5 11C3.96667 11 2.66667 10.4667 1.6 9.4C0.533333 8.33333 0 7.03333 0 5.5C0 3.96667 0.533333 2.66667 1.6 1.6C2.66667 0.533333 3.96667 0 5.5 0C6.11667 0 6.70833 0.108333 7.275 0.325C7.84167 0.541667 8.35 0.85 8.8 1.25L10.5 2.8L9 4.15L7.45 2.75C7.18333 2.51667 6.88333 2.33333 6.55 2.2C6.21667 2.06667 5.86667 2 5.5 2C4.53333 2 3.70833 2.34167 3.025 3.025C2.34167 3.70833 2 4.53333 2 5.5C2 6.46667 2.34167 7.29167 3.025 7.975C3.70833 8.65833 4.53333 9 5.5 9C5.86667 9 6.21667 8.93333 6.55 8.8C6.88333 8.66667 7.18333 8.48333 7.45 8.25L15.2 1.25C15.65 0.85 16.1583 0.541667 16.725 0.325C17.2917 0.108333 17.8833 0 18.5 0C20.0333 0 21.3333 0.533333 22.4 1.6C23.4667 2.66667 24 3.96667 24 5.5C24 7.03333 23.4667 8.33333 22.4 9.4C21.3333 10.4667 20.0333 11 18.5 11C17.8833 11 17.2917 10.8917 16.725 10.675C16.1583 10.4583 15.65 10.15 15.2 9.75L13.5 8.2L15 6.85L16.55 8.25C16.8167 8.48333 17.1167 8.66667 17.45 8.8C17.7833 8.93333 18.1333 9 18.5 9C19.4667 9 20.2917 8.65833 20.975 7.975C21.6583 7.29167 22 6.46667 22 5.5C22 4.53333 21.6583 3.70833 20.975 3.025C20.2917 2.34167 19.4667 2 18.5 2C18.1333 2 17.7833 2.06667 17.45 2.2C17.1167 2.33333 16.8167 2.51667 16.55 2.75L8.8 9.75C8.35 10.15 7.84167 10.4583 7.275 10.675C6.70833 10.8917 6.11667 11 5.5 11Z" fill="#FBBF24"/>
</svg>
