<svg width="50" height="38" viewBox="0 0 50 38" fill="none" xmlns="http://www.w3.org/2000/svg">
<path d="M19.65 14H21.65V9H19.65V14ZM27.65 14H29.65V4H27.65V14ZM23.65 14H25.65V11H23.65V14ZM23.65 9H25.65V7H23.65V9ZM17.65 18C17.1 18 16.6292 17.8042 16.2375 17.4125C15.8459 17.0208 15.65 16.55 15.65 16V2C15.65 1.45 15.8459 0.979167 16.2375 0.5875C16.6292 0.195833 17.1 0 17.65 0H31.65C32.2 0 32.6709 0.195833 33.0625 0.5875C33.4542 0.979167 33.65 1.45 33.65 2V16C33.65 16.55 33.4542 17.0208 33.0625 17.4125C32.6709 17.8042 32.2 18 31.65 18H17.65ZM17.65 16H31.65V2H17.65V16ZM17.65 2V16V2Z" fill="#C5C6CD"/>
<path d="M0.230399 34L3.3024 25.48H5.20803L8.28003 34H6.6432L5.94001 31.984H2.56562L1.86243 34H0.230399ZM3.02403 30.6496H5.4864L4.25762 27.0568L3.02403 30.6496ZM12.4536 34.144C11.8168 34.144 11.2628 34.0064 10.7916 33.7312C10.3204 33.456 9.9544 33.0668 9.6936 32.5636C9.4328 32.0604 9.3024 31.4712 9.3024 30.796C9.3024 30.1208 9.4328 29.5336 9.6936 29.0344C9.9544 28.5352 10.3204 28.146 10.7916 27.8668C11.2628 27.5876 11.8168 27.448 12.4536 27.448C12.996 27.448 13.4804 27.5436 13.9068 27.7348C14.3332 27.926 14.68 28.2008 14.9472 28.5592C15.2144 28.9176 15.3808 29.352 15.4464 29.8624L13.8576 29.944C13.7952 29.536 13.6384 29.226 13.3872 29.014C13.136 28.802 12.8248 28.696 12.4536 28.696C11.9592 28.696 11.5752 28.8812 11.3016 29.2516C11.028 29.622 10.8912 30.1368 10.8912 30.796C10.8912 31.4584 11.028 31.9748 11.3016 32.3452C11.5752 32.7156 11.9592 32.9008 12.4536 32.9008C12.828 32.9008 13.1416 32.7912 13.3944 32.572C13.6472 32.3528 13.8016 32.0176 13.8576 31.5664L15.4464 31.6384C15.384 32.1488 15.2208 32.5916 14.9568 32.9668C14.6928 33.342 14.3476 33.632 13.9212 33.8368C13.4948 34.0416 13.0056 34.144 12.4536 34.144ZM19.4592 34C18.8224 34 18.354 33.8528 18.054 33.5584C17.754 33.264 17.604 32.8 17.604 32.1664V26.0896H19.14V32.0176C19.14 32.3184 19.2048 32.5256 19.3344 32.6392C19.464 32.7528 19.6624 32.8096 19.9296 32.8096H20.832V34H19.4592ZM16.6008 28.7824V27.592H20.832V28.7824H16.6008ZM22.4688 34V27.592H24.0048V34H22.4688ZM22.44 26.7352V25.3768H24.0336V26.7352H22.44ZM27.9264 34L25.5864 27.592H27.2088L28.8408 32.4496L30.468 27.592H32.0904L29.7456 34H27.9264ZM33.6648 34V27.592H35.2008V34H33.6648ZM33.636 26.7352V25.3768H35.2296V26.7352H33.636ZM39.6552 34C39.0184 34 38.55 33.8528 38.25 33.5584C37.95 33.264 37.8 32.8 37.8 32.1664V26.0896H39.336V32.0176C39.336 32.3184 39.4008 32.5256 39.5304 32.6392C39.66 32.7528 39.8584 32.8096 40.1256 32.8096H41.028V34H39.6552ZM36.7968 28.7824V27.592H41.028V28.7824H36.7968ZM43.1256 35.8V34.6096H43.9392C44.1504 34.6096 44.3068 34.578 44.4084 34.5148C44.51 34.4516 44.5888 34.344 44.6448 34.192L44.8152 33.7456H44.3712L42.0864 27.592H43.68L45.2928 32.3104L46.8216 27.592H48.4152L45.9072 34.6744C45.768 35.0728 45.568 35.36 45.3072 35.536C45.0464 35.712 44.6832 35.8 44.2176 35.8H43.1256Z" fill="#C5C6CD"/>
</svg>
