<svg width="21" height="21" viewBox="0 0 21 21" fill="none" xmlns="http://www.w3.org/2000/svg">
<path d="M10.0125 21C8.6375 21 7.34167 20.7375 6.125 20.2125C4.90833 19.6875 3.84583 18.9708 2.9375 18.0625C2.02917 17.1542 1.3125 16.0917 0.7875 14.875C0.2625 13.6583 0 12.3625 0 10.9875C0 9.6125 0.2625 8.32083 0.7875 7.1125C1.3125 5.90417 2.02917 4.84583 2.9375 3.9375C3.84583 3.02917 4.90833 2.3125 6.125 1.7875C7.34167 1.2625 8.63333 1 10 1C10.5333 1 11.0458 1.0375 11.5375 1.1125C12.0292 1.1875 12.5167 1.3 13 1.45V4C13 4.55 12.8042 5.02083 12.4125 5.4125C12.0208 5.80417 11.55 6 11 6H9V8C9 8.28333 8.90417 8.52083 8.7125 8.7125C8.52083 8.90417 8.28333 9 8 9H6V11H12C12.2833 11 12.5208 11.0958 12.7125 11.2875C12.9042 11.4792 13 11.7167 13 12V15H14C14.45 15 14.8458 15.1333 15.1875 15.4C15.5292 15.6667 15.7667 16 15.9 16.4C16.55 15.6667 17.0625 14.8458 17.4375 13.9375C17.8125 13.0292 18 12.05 18 11C18 10.8167 17.9917 10.65 17.975 10.5C17.9583 10.35 17.9333 10.1833 17.9 10H19.95C19.9833 10.1833 20 10.35 20 10.5C20 10.65 20 10.8167 20 11C20 12.3667 19.7375 13.6583 19.2125 14.875C18.6875 16.0917 17.9708 17.1542 17.0625 18.0625C16.1542 18.9708 15.0958 19.6875 13.8875 20.2125C12.6792 20.7375 11.3875 21 10.0125 21ZM9 18.95V17C8.45 17 7.97917 16.8042 7.5875 16.4125C7.19583 16.0208 7 15.55 7 15V14L2.2 9.2C2.15 9.5 2.10417 9.8 2.0625 10.1C2.02083 10.4 2 10.7 2 11C2 13.0667 2.67083 14.8458 4.0125 16.3375C5.35417 17.8292 7.01667 18.7 9 18.95ZM16 8C15.7167 8 15.4792 7.90417 15.2875 7.7125C15.0958 7.52083 15 7.28333 15 7V4C15 3.71667 15.0958 3.47917 15.2875 3.2875C15.4792 3.09583 15.7167 3 16 3V2C16 1.45 16.1958 0.979167 16.5875 0.5875C16.9792 0.195833 17.45 0 18 0C18.55 0 19.0208 0.195833 19.4125 0.5875C19.8042 0.979167 20 1.45 20 2V3C20.2833 3 20.5208 3.09583 20.7125 3.2875C20.9042 3.47917 21 3.71667 21 4V7C21 7.28333 20.9042 7.52083 20.7125 7.7125C20.5208 7.90417 20.2833 8 20 8H16ZM17 3H19V2C19 1.71667 18.9042 1.47917 18.7125 1.2875C18.5208 1.09583 18.2833 1 18 1C17.7167 1 17.4792 1.09583 17.2875 1.2875C17.0958 1.47917 17 1.71667 17 2V3Z" fill="#ADC6FF"/>
</svg>
