<svg width="13" height="13" viewBox="0 0 13 13" fill="none" xmlns="http://www.w3.org/2000/svg">
<path d="M5.84062 12.25C5.03854 12.25 4.28264 12.0969 3.57292 11.7906C2.86319 11.4844 2.2434 11.0663 1.71354 10.5365C1.18368 10.0066 0.765625 9.38681 0.459375 8.67708C0.153125 7.96736 0 7.21146 0 6.40938C0 5.60729 0.153125 4.85382 0.459375 4.14896C0.765625 3.4441 1.18368 2.82674 1.71354 2.29688C2.2434 1.76701 2.86319 1.34896 3.57292 1.04271C4.28264 0.736458 5.03611 0.583333 5.83333 0.583333C6.14444 0.583333 6.4434 0.605208 6.73021 0.648958C7.01701 0.692708 7.30139 0.758333 7.58333 0.845833V2.33333C7.58333 2.65417 7.4691 2.92882 7.24062 3.15729C7.01215 3.38576 6.7375 3.5 6.41667 3.5H5.25V4.66667C5.25 4.83194 5.1941 4.97049 5.08229 5.08229C4.97049 5.1941 4.83194 5.25 4.66667 5.25H3.5V6.41667H7C7.16528 6.41667 7.30382 6.47257 7.41563 6.58437C7.52743 6.69618 7.58333 6.83472 7.58333 7V8.75H8.16667C8.42917 8.75 8.66007 8.82778 8.85938 8.98333C9.05868 9.13889 9.19722 9.33333 9.275 9.56667C9.65417 9.13889 9.95312 8.66007 10.1719 8.13021C10.3906 7.60035 10.5 7.02917 10.5 6.41667C10.5 6.30972 10.4951 6.2125 10.4854 6.125C10.4757 6.0375 10.4611 5.94028 10.4417 5.83333H11.6375C11.6569 5.94028 11.6667 6.0375 11.6667 6.125C11.6667 6.2125 11.6667 6.30972 11.6667 6.41667C11.6667 7.21389 11.5135 7.96736 11.2073 8.67708C10.901 9.38681 10.483 10.0066 9.95312 10.5365C9.42326 11.0663 8.8059 11.4844 8.10104 11.7906C7.39618 12.0969 6.64271 12.25 5.84062 12.25ZM5.25 11.0542V9.91667C4.92917 9.91667 4.65451 9.80243 4.42604 9.57396C4.19757 9.34549 4.08333 9.07083 4.08333 8.75V8.16667L1.28333 5.36667C1.25417 5.54167 1.22743 5.71667 1.20312 5.89167C1.17882 6.06667 1.16667 6.24167 1.16667 6.41667C1.16667 7.62222 1.55799 8.66007 2.34063 9.53021C3.12326 10.4003 4.09306 10.9083 5.25 11.0542ZM9.33333 4.66667C9.16806 4.66667 9.02951 4.61076 8.91771 4.49896C8.8059 4.38715 8.75 4.24861 8.75 4.08333V2.33333C8.75 2.16806 8.8059 2.02951 8.91771 1.91771C9.02951 1.8059 9.16806 1.75 9.33333 1.75V1.16667C9.33333 0.845833 9.44757 0.571181 9.67604 0.342708C9.90451 0.114236 10.1792 0 10.5 0C10.8208 0 11.0955 0.114236 11.324 0.342708C11.5524 0.571181 11.6667 0.845833 11.6667 1.16667V1.75C11.8319 1.75 11.9705 1.8059 12.0823 1.91771C12.1941 2.02951 12.25 2.16806 12.25 2.33333V4.08333C12.25 4.24861 12.1941 4.38715 12.0823 4.49896C11.9705 4.61076 11.8319 4.66667 11.6667 4.66667H9.33333ZM9.91667 1.75H11.0833V1.16667C11.0833 1.00139 11.0274 0.862847 10.9156 0.751042C10.8038 0.639236 10.6653 0.583333 10.5 0.583333C10.3347 0.583333 10.1962 0.639236 10.0844 0.751042C9.97257 0.862847 9.91667 1.00139 9.91667 1.16667V1.75Z" fill="#4CD7F6"/>
</svg>
